<svg id="Layer_1" data-name="Layer 1" xmlns="http://www.w3.org/2000/svg" viewBox="0 0 1573.96 470.31"><defs><style>.cls-1,.cls-2,.cls-3,.cls-4{fill:none;stroke-miterlimit:10;stroke-width:30px;}.cls-1{stroke:#000;}.cls-2{stroke:#b4d463;}.cls-3{stroke:#e94d4c;}.cls-4{stroke:#52b0e4;}.cls-5{fill:#f6e565;}.cls-6{fill:#e94d4c;}.cls-7{fill:#52b0e4;}.cls-8{fill:#b4d463;}.cls-9{font-size:250px;font-family:HelveticaNeue-Bold, Helvetica Neue;font-weight:700;}</style></defs><path class="cls-1" d="M423.38,323.89C364.9,288,300.8,270.6,230.72,273" transform="translate(-18.54 -14.99)"/><path class="cls-2" d="M91.07,412.76c125.06,23.1,235-6.79,330.24-88.48" transform="translate(-18.54 -14.99)"/><path class="cls-3" d="M421.11,324.7C378.58,204.84,297.71,124.55,179.35,82.94" transform="translate(-18.54 -14.99)"/><path class="cls-4" d="M179.94,83.27C97.41,180,68.31,290.2,91.46,413.51" transform="translate(-18.54 -14.99)"/><path class="cls-4" d="M179.06,83.22c23.1,125.05-6.79,235-88.49,330.24" transform="translate(-18.54 -14.99)"/><circle class="cls-1" cx="212.11" cy="258.2" r="197.06"/><path class="cls-5" d="M230.55,326.09a53.37,53.37,0,1,1,13.82-1.83,53.31,53.31,0,0,1-13.82,1.83Z" transform="translate(-18.54 -14.99)"/><path d="M230.63,234.56a38.38,38.38,0,1,1-9.94,1.32,38.29,38.29,0,0,1,9.94-1.32m0-30a68.26,68.26,0,1,0,65.89,50.6,68.16,68.16,0,0,0-65.89-50.6Z" transform="translate(-18.54 -14.99)"/><path class="cls-6" d="M179.45,136.53a53.3,53.3,0,1,1,13.83-1.83,53.3,53.3,0,0,1-13.83,1.83Z" transform="translate(-18.54 -14.99)"/><path d="M179.54,45a38.34,38.34,0,1,1-9.95,1.32A38.75,38.75,0,0,1,179.54,45m0-30A68.26,68.26,0,1,0,245.42,65.6,68.18,68.18,0,0,0,179.54,15Z" transform="translate(-18.54 -14.99)"/><path class="cls-7" d="M420.8,377.88a53.3,53.3,0,1,1,13.83-1.83,53.31,53.31,0,0,1-13.83,1.83Z" transform="translate(-18.54 -14.99)"/><path d="M420.89,286.34a38.34,38.34,0,1,1-9.95,1.32,38.75,38.75,0,0,1,9.95-1.32m0-30A68.26,68.26,0,1,0,486.77,307a68.18,68.18,0,0,0-65.88-50.61Z" transform="translate(-18.54 -14.99)"/><path class="cls-8" d="M91.11,466.22a53.35,53.35,0,1,1,13.83-1.83,53.31,53.31,0,0,1-13.83,1.83Z" transform="translate(-18.54 -14.99)"/><path d="M91.2,374.68a38.34,38.34,0,1,1-10,1.32,38.75,38.75,0,0,1,10-1.32m0-30a68.26,68.26,0,1,0,65.88,50.61A68.18,68.18,0,0,0,91.2,344.68Z" transform="translate(-18.54 -14.99)"/><text class="cls-9" transform="translate(530.66 329.56)">PoApper</text><polygon class="cls-6" points="1170.33 177.25 1034.45 177.25 1042.37 157.01 1178.24 157.01 1170.33 177.25"/><polygon class="cls-5" points="1302.23 177.25 1166.36 177.25 1174.27 157.01 1310.14 157.01 1302.23 177.25"/><polygon class="cls-8" points="1434.14 177.25 1298.27 177.25 1306.18 157.01 1442.05 157.01 1434.14 177.25"/><polygon class="cls-7" points="1566.05 177.25 1430.17 177.25 1438.08 157.01 1573.95 157.01 1566.05 177.25"/></svg>