<svg width="300" height="300" xmlns="http://www.w3.org/2000/svg" data-name="레이어 5">

 <g>
  <title>Layer 1</title>
  <polygon id="svg_1" fill="#005d80" points="113.75599670410156,280 84,266.5679931640625 84,227.2469940185547 113.75599670410156,240.6790008544922 113.75599670410156,280 " class="cls-1"/>
  <polygon id="svg_2" fill="#00758e" points="113.75599670410156,234.56100463867188 84,221.12899780273438 84,181.80799865722656 113.75599670410156,195.24099731445312 113.75599670410156,234.56100463867188 " class="cls-2"/>
  <polygon id="svg_3" fill="#b81f54" points="230.58200073242188,83.11000061035156 192.91000366210938,66.32099914550781 192.91000366210938,27 230.58200073242188,43.788997650146484 230.58200073242188,83.11000061035156 " class="cls-3"/>
  <polygon id="svg_4" fill="#713a63" points="113.75599670410156,189.1230010986328 84,175.69000244140625 84,122.34200286865234 113.75599670410156,135.77499389648438 113.75599670410156,189.1230010986328 " class="cls-4"/>
  <polyline id="svg_5" fill="#023f64" points="113.75599670410156,280 143.51199340820312,266.5679931640625 143.51199340820312,227.2469940185547 113.75599670410156,240.6790008544922 " class="cls-5"/>
  <polyline id="svg_6" fill="#005d73" points="113.75599670410156,234.56100463867188 230.58200073242188,181.8520050048828 230.58200073242188,142.53199768066406 113.75599670410156,195.24099731445312 " class="cls-6"/>
  <polyline id="svg_7" fill="#921041" points="84,115.52300262451172 192.91000366210938,66.32099914550781 192.91000366210938,27 84,76.20199584960938 " class="cls-7"/>
  <polyline id="svg_8" fill="#da1451" points="84,76.20199584960938 230.58200073242188,142.53199768066406 230.58200073242188,181.8520050048828 84,115.52300262451172 " class="cls-8"/>
 </g>
</svg>