<?xml version="1.0" encoding="UTF-8" standalone="no"?>
<!DOCTYPE svg PUBLIC "-//W3C//DTD SVG 1.1//EN" "http://www.w3.org/Graphics/SVG/1.1/DTD/svg11.dtd">
<svg width="100%" height="100%" viewBox="0 0 1228 378" version="1.1" xmlns="http://www.w3.org/2000/svg" xmlns:xlink="http://www.w3.org/1999/xlink" xml:space="preserve" xmlns:serif="http://www.serif.com/" style="fill-rule:evenodd;clip-rule:evenodd;stroke-linejoin:round;stroke-miterlimit:2;">
    <g transform="matrix(1,0,0,1,-87,-11)">
        <g id="Light" transform="matrix(1.16667,0,0,1,2.27374e-13,0)">
            <rect x="0" y="0" width="1200" height="400" style="fill:none;"/>
            <g id="Icon--Expanded-" serif:id="Icon (Expanded)" transform="matrix(0.857143,0,0,1,79.0802,-1.5)">
                <g id="Lines" transform="matrix(1,0,0,1,-41,15)">
                    <path d="M97.446,90.574C95.215,84.299 94,77.54 94,70.5C94,37.385 120.885,10.5 154,10.5C180.051,10.5 202.247,27.139 210.532,50.365C288.09,55.759 349.482,120.211 349.997,198.999C371.182,208.265 386,229.415 386,254C386,287.115 359.115,314 326,314C317.735,314 309.857,312.325 302.691,309.297C275.842,334.534 239.713,350 200,350C183.799,350 168.194,347.426 153.561,342.661C142.578,354.839 126.677,362.5 109,362.5C75.885,362.5 49,335.615 49,302.5C49,287.38 54.605,273.558 63.851,262.999C54.962,243.837 50,222.493 50,200C50,156.86 68.251,117.948 97.446,90.574ZM213.851,74.754C211.666,105.888 185.684,130.5 154,130.5C136.77,130.5 121.227,123.222 110.277,111.572C87.851,134.322 74,165.556 74,200C74,217.052 77.394,233.316 83.546,248.16C91.277,244.529 99.903,242.5 109,242.5C142.115,242.5 169,269.385 169,302.5C169,309.083 167.937,315.42 165.976,321.345C176.801,324.378 188.213,326 200,326C231.516,326 260.345,314.404 282.447,295.252C272.254,284.493 266,269.971 266,254C266,247.443 267.054,241.131 269.001,235.225C261.27,228.781 252.001,225.407 245.236,223.676C235.605,243.962 214.929,258 191,258C157.885,258 131,231.115 131,198C131,164.885 157.885,138 191,138C224.115,138 251,164.885 251,198C251,198.884 250.981,199.764 250.943,200.638C259.38,202.914 270.716,207.054 280.951,214.387C291.923,201.922 307.978,194.041 325.859,194C322.943,131.869 274.931,81.444 213.851,74.754Z" style="fill:rgb(5,15,44);"/>
                </g>
                <g id="Blue" transform="matrix(0.24,0,0,0.24,246.84,218.36)">
                    <circle cx="159" cy="211" r="150" style="fill:rgb(0,174,255);"/>
                </g>
                <g id="Green" transform="matrix(0.24,0,0,0.24,29.84,266.86)">
                    <circle cx="159" cy="211" r="150" style="fill:rgb(45,222,152);"/>
                </g>
                <g id="Red" transform="matrix(0.24,0,0,0.24,74.84,34.86)">
                    <circle cx="159" cy="211" r="150" style="fill:rgb(255,79,129);"/>
                </g>
                <g id="Yellow" transform="matrix(0.24,0,0,0.24,111.84,162.36)">
                    <circle cx="159" cy="211" r="150" style="fill:rgb(255,193,104);"/>
                </g>
            </g>
            <g id="Text-Group" serif:id="Text Group" transform="matrix(1,0,0,1,33.2175,3.54592)">
                <g id="Guide" transform="matrix(0.895859,0,0,1.01079,-60.7424,-12.5489)">
                    <rect x="493.1" y="93" width="794.8" height="227.546" style="fill:none;"/>
                </g>
                <g transform="matrix(0.857143,0,0,1,-38.5409,93.0023)">
                    <g transform="matrix(1,0,0,1,-3.62917,-96.5482)">
                        <path d="M518.45,221.35L518.45,279.75L493.35,279.75L493.35,128.25C493.35,128.25 538.1,128.25 538.1,128.25C554.48,128.25 567.853,132.381 577.15,140.185C586.544,148.069 591.85,159.707 591.85,174.8C591.85,189.892 586.646,201.527 577.331,209.411C568.109,217.216 554.786,221.35 538.3,221.35L518.45,221.35ZM518.45,198.05L538.1,198.05C548.876,198.05 557.107,195.1 561.934,189.383C565.092,185.644 566.75,180.736 566.75,174.8C566.75,168.793 565.033,163.873 561.818,160.144C556.896,154.437 548.57,151.55 537.9,151.55L518.45,151.55L518.45,198.05Z" style="fill:rgb(5,15,44);fill-rule:nonzero;"/>
                    </g>
                    <g transform="matrix(1,0,0,1,-0.629169,-96.5482)">
                        <path d="M712.85,223.42C713.262,187.172 683.611,162.45 652.1,162.45C617.104,162.45 589.75,188.209 589.75,223C589.75,255.135 618.365,282.55 650.5,282.55C686.942,282.55 712.438,253.895 712.85,223.424L712.85,223.42ZM688.55,222.2C688.55,243.61 671.537,260.05 650.7,260.05C630.645,260.05 614.05,242.455 614.05,222.4C614.05,201.769 631.233,184.95 651.1,184.95C671.924,184.95 688.55,201.567 688.55,222.2Z" style="fill:rgb(5,15,44);fill-rule:nonzero;"/>
                    </g>
                    <g transform="matrix(1,0,0,1,2.37083,-96.5482)">
                        <path d="M755.911,236.15L739.511,279.75L712.964,279.75L770.493,128.25L792.307,128.25L849.836,279.75L823.089,279.75L806.689,236.15L755.911,236.15ZM764.733,212.85L798.075,212.85L781.492,162.926L764.733,212.85Z" style="fill:rgb(5,15,44);fill-rule:nonzero;"/>
                    </g>
                    <g transform="matrix(200,0,0,200,849.071,181.452)">
                        <path d="M0.171,-0.492C0.219,-0.549 0.287,-0.578 0.361,-0.578C0.531,-0.578 0.657,-0.446 0.657,-0.27C0.657,-0.109 0.532,0.023 0.368,0.023C0.291,0.023 0.221,-0.005 0.18,-0.055L0.18,0.194L0.058,0.194L0.058,-0.563L0.171,-0.563L0.171,-0.492ZM0.357,-0.09C0.254,-0.09 0.178,-0.175 0.178,-0.278C0.178,-0.376 0.254,-0.465 0.353,-0.465C0.459,-0.465 0.535,-0.372 0.535,-0.276C0.535,-0.175 0.459,-0.09 0.357,-0.09Z" style="fill:rgb(5,15,44);"/>
                    </g>
                    <g transform="matrix(200,0,0,200,983.271,181.452)">
                        <path d="M0.171,-0.492C0.219,-0.549 0.287,-0.578 0.361,-0.578C0.531,-0.578 0.657,-0.446 0.657,-0.27C0.657,-0.109 0.532,0.023 0.368,0.023C0.291,0.023 0.221,-0.005 0.18,-0.055L0.18,0.194L0.058,0.194L0.058,-0.563L0.171,-0.563L0.171,-0.492ZM0.357,-0.09C0.254,-0.09 0.178,-0.175 0.178,-0.278C0.178,-0.376 0.254,-0.465 0.353,-0.465C0.459,-0.465 0.535,-0.372 0.535,-0.276C0.535,-0.175 0.459,-0.09 0.357,-0.09Z" style="fill:rgb(5,15,44);"/>
                    </g>
                    <g transform="matrix(1,0,0,1,11.3708,-96.5482)">
                        <path d="M1137.02,233.35C1142.15,249.662 1155.55,260.05 1171.1,260.05C1183.46,260.05 1195.07,253.59 1201.16,242.366L1201.66,241.45L1226.03,241.45L1225.14,243.818C1216.28,267.314 1194.83,282.55 1170.3,282.55C1138.14,282.55 1112.15,254.112 1112.15,223.6C1112.15,187.538 1139.41,162.45 1169.7,162.45C1203.3,162.45 1228.85,188.427 1228.85,221.2C1228.85,224.689 1228.84,227.973 1228.23,231.873L1228,233.35L1137.02,233.35ZM1204.34,213.85C1201.9,196.959 1186.62,184.95 1170.3,184.95C1154.71,184.95 1139.11,196.796 1136.66,213.85L1204.34,213.85Z" style="fill:rgb(5,15,44);fill-rule:nonzero;"/>
                    </g>
                    <g transform="matrix(1,0,0,1,14.3708,-96.5482)">
                        <path d="M1263.05,172.717C1268.52,166.919 1276.91,163.159 1289.8,162.453L1305.84,162.351L1305.84,187.293L1289.96,187.349C1281.52,187.63 1275.12,190.283 1270.86,195.109C1266.56,199.981 1264.45,207.002 1264.45,215.8L1264.45,279.75L1240.15,279.75L1240.15,165.45L1263.05,165.45L1263.05,172.717Z" style="fill:rgb(5,15,44);fill-rule:nonzero;"/>
                    </g>
                </g>
                <g id="Bar" transform="matrix(1.06169,0,0,1.22222,-36.581,-56.1009)">
                    <g transform="matrix(1.17408,0,0,1.12681,-279.264,1.96424)">
                        <path d="M966.922,110.48L828.113,110.48L828.113,126.454L959.616,126.454L966.922,110.48Z" style="fill:rgb(255,79,129);"/>
                    </g>
                    <g transform="matrix(0.725309,0,0,1.12681,258.311,1.96424)">
                        <path d="M965.38,110.48L832.143,110.48L820.317,126.454L953.555,126.454L965.38,110.48Z" style="fill:rgb(255,193,104);"/>
                    </g>
                    <g transform="matrix(0.448163,0,0,1.12681,590.333,1.96424)">
                        <path d="M962.936,110.48L834.674,110.48L815.536,126.454L943.798,126.454L962.936,110.48Z" style="fill:rgb(45,222,152);"/>
                    </g>
                    <g transform="matrix(0.277146,0,0,1.12681,795.298,1.96424)">
                        <path d="M969.452,110.48L838.55,110.48L807.603,126.454L969.452,126.454L969.452,110.48Z" style="fill:rgb(0,174,255);"/>
                    </g>
                </g>
            </g>
        </g>
    </g>
</svg>
